<?xml version="1.0" encoding="UTF-8" standalone="no"?>
<svg
   xmlns:dc="http://purl.org/dc/elements/1.1/"
   xmlns:cc="http://creativecommons.org/ns#"
   xmlns:rdf="http://www.w3.org/1999/02/22-rdf-syntax-ns#"
   xmlns:svg="http://www.w3.org/2000/svg"
   xmlns="http://www.w3.org/2000/svg"
   xmlns:sodipodi="http://sodipodi.sourceforge.net/DTD/sodipodi-0.dtd"
   xmlns:inkscape="http://www.inkscape.org/namespaces/inkscape"
   viewBox="0 0 18473.916 6961.7481"
   height="45.501621"
   width="112.40881"
   version="1.1"
   id="svg24"
   sodipodi:docname="acesso.svg"
   style="clip-rule:evenodd;fill-rule:evenodd;shape-rendering:geometricPrecision;text-rendering:geometricPrecision"
   inkscape:version="0.92.1 r15371">
  <metadata
     id="metadata28">
    <rdf:RDF>
      <cc:Work
         rdf:about="">
        <dc:format>image/svg+xml</dc:format>
        <dc:type
           rdf:resource="http://purl.org/dc/dcmitype/StillImage" />
        <dc:title />
      </cc:Work>
    </rdf:RDF>
  </metadata>
  <sodipodi:namedview
     pagecolor="#ffffff"
     bordercolor="#666666"
     borderopacity="1"
     objecttolerance="10"
     gridtolerance="10"
     guidetolerance="10"
     inkscape:pageopacity="0"
     inkscape:pageshadow="2"
     inkscape:window-width="1375"
     inkscape:window-height="876"
     id="namedview26"
     showgrid="false"
     inkscape:zoom="3.0373832"
     inkscape:cx="53.5"
     inkscape:cy="22.753853"
     inkscape:window-x="65"
     inkscape:window-y="24"
     inkscape:window-maximized="1"
     inkscape:current-layer="g22"
     fit-margin-top="0"
     fit-margin-left="0"
     fit-margin-right="0"
     fit-margin-bottom="0" />
  <defs
     id="defs4">
    <style
       type="text/css"
       id="style2"><![CDATA[.a {font: normal bold 1693px Open Sans, sans-serif;}]]></style>
  </defs>
  <g
     transform="translate(-1125,-10637.972)"
     id="g22">
    <circle
       cx="4864"
       cy="14099"
       r="3739"
       id="circle6"
       style="fill:#f6a800" />
    <path
       d="m 1835,16193.3 -353,1005 c -137,389 70,596 459,459 l 1005,-353 z"
       class="fil1"
       id="path8"
       inkscape:connector-curvature="0"
       style="fill:#f6a800" />
    <circle
       r="750"
       cy="12225"
       cx="4874"
       id="circle10"
       style="fill:#00692c" />
    <path
       d="m 4874,13350 c -414,0 -750,336 -750,750 v 1877 c 0,414 336,750 750,750 414,0 750,-336 750,-750 v -1877 c 0,-414 -336,-750 -750,-750 z"
       id="path12"
       inkscape:connector-curvature="0"
       style="fill:#00692c" />
    <g
       aria-label="Acesso àInformação"
       style="font-style:normal;font-variant:normal;font-weight:bold;font-stretch:normal;font-family:'Open Sans', sans-serif;-inkscape-font-specification:'Open Sans, sans-serif Bold';fill:#ffffff"
       id="text18">
      <path
         d="M 9777.3662,13099.148 H 9279.7168 L 9201.1841,13324 h -319.9175 l 457.1431,-1234.204 h 379.437 L 10174.99,13324 h -319.9177 z m -418.29,-228.984 h 338.104 l -168.6387,-491.037 z"
         style="font-style:normal;font-variant:normal;font-weight:bold;font-stretch:normal;font-size:1693px;line-height:normal;font-family:'Open Sans', sans-serif;-inkscape-font-specification:'Open Sans, sans-serif Bold';fill:#ffffff"
         id="path3734" />
      <path
         d="m 11072.743,12427.074 v 241.384 q -60.347,-41.333 -121.519,-61.172 -60.347,-19.84 -125.653,-19.84 -123.999,0 -193.438,72.746 -68.613,71.919 -68.613,201.705 0,129.786 68.613,202.532 69.439,71.919 193.438,71.919 69.44,0 131.439,-20.666 62.826,-20.667 115.733,-61.173 v 242.211 q -69.44,25.627 -141.359,38.027 -71.093,13.226 -143.012,13.226 -250.478,0 -391.837,-128.132 -141.359,-128.959 -141.359,-357.944 0,-228.985 141.359,-357.117 141.359,-128.959 391.837,-128.959 72.746,0 143.012,13.226 71.093,12.4 141.359,38.027 z"
         style="font-style:normal;font-variant:normal;font-weight:bold;font-stretch:normal;font-size:1693px;line-height:normal;font-family:'Open Sans', sans-serif;-inkscape-font-specification:'Open Sans, sans-serif Bold';fill:#ffffff"
         id="path3736" />
      <path
         d="m 12254.04,12858.59 v 84.32 h -691.915 q 10.747,104.159 75.227,156.238 64.479,52.08 180.211,52.08 93.413,0 190.959,-27.28 98.373,-28.106 201.705,-84.319 v 228.158 q -104.986,39.68 -209.972,59.52 -104.985,20.666 -209.971,20.666 -251.305,0 -391.011,-127.306 -138.878,-128.132 -138.878,-358.77 0,-226.505 136.398,-356.291 137.226,-129.785 376.957,-129.785 218.239,0 348.851,131.439 131.439,131.439 131.439,351.33 z m -304.211,-98.372 q 0,-84.32 -49.6,-135.572 -48.772,-52.08 -128.132,-52.08 -85.972,0 -139.705,48.773 -53.733,47.946 -66.96,138.879 z"
         style="font-style:normal;font-variant:normal;font-weight:bold;font-stretch:normal;font-size:1693px;line-height:normal;font-family:'Open Sans', sans-serif;-inkscape-font-specification:'Open Sans, sans-serif Bold';fill:#ffffff"
         id="path3738" />
      <path
         d="m 13200.566,12427.074 v 224.851 q -95.066,-39.679 -183.519,-59.519 -88.452,-19.84 -166.985,-19.84 -84.319,0 -125.652,21.493 -40.507,20.667 -40.507,64.48 0,35.546 30.587,54.559 31.413,19.013 111.599,28.107 l 52.079,7.44 q 227.332,28.933 305.865,95.065 78.532,66.133 78.532,207.492 0,147.972 -109.119,222.372 -109.119,74.399 -325.704,74.399 -91.759,0 -190.132,-14.88 -97.546,-14.053 -200.878,-42.986 v -224.852 q 88.453,42.987 181.039,64.48 93.412,21.493 189.305,21.493 86.799,0 130.612,-23.973 43.813,-23.973 43.813,-71.093 0,-39.68 -30.586,-58.693 -29.76,-19.84 -119.866,-30.586 l -52.08,-6.613 q -197.572,-24.8 -276.931,-91.76 -79.359,-66.959 -79.359,-203.358 0,-147.146 100.852,-218.238 100.853,-71.093 309.171,-71.093 81.84,0 171.945,12.4 90.106,12.4 195.919,38.853 z"
         style="font-style:normal;font-variant:normal;font-weight:bold;font-stretch:normal;font-size:1693px;line-height:normal;font-family:'Open Sans', sans-serif;-inkscape-font-specification:'Open Sans, sans-serif Bold';fill:#ffffff"
         id="path3740" />
      <path
         d="m 14209.091,12427.074 v 224.851 q -95.066,-39.679 -183.518,-59.519 -88.453,-19.84 -166.986,-19.84 -84.319,0 -125.652,21.493 -40.506,20.667 -40.506,64.48 0,35.546 30.586,54.559 31.413,19.013 111.599,28.107 l 52.08,7.44 q 227.331,28.933 305.864,95.065 78.533,66.133 78.533,207.492 0,147.972 -109.119,222.372 -109.119,74.399 -325.704,74.399 -91.76,0 -190.132,-14.88 -97.546,-14.053 -200.879,-42.986 v -224.852 q 88.453,42.987 181.039,64.48 93.412,21.493 189.305,21.493 86.799,0 130.612,-23.973 43.813,-23.973 43.813,-71.093 0,-39.68 -30.586,-58.693 -29.76,-19.84 -119.866,-30.586 l -52.079,-6.613 q -197.572,-24.8 -276.932,-91.76 -79.359,-66.959 -79.359,-203.358 0,-147.146 100.853,-218.238 100.852,-71.093 309.171,-71.093 81.839,0 171.945,12.4 90.106,12.4 195.918,38.853 z"
         style="font-style:normal;font-variant:normal;font-weight:bold;font-stretch:normal;font-size:1693px;line-height:normal;font-family:'Open Sans', sans-serif;-inkscape-font-specification:'Open Sans, sans-serif Bold';fill:#ffffff"
         id="path3742" />
      <path
         d="m 14934.899,12587.446 q -98.373,0 -150.452,71.093 -51.253,70.266 -51.253,203.358 0,133.092 51.253,204.185 52.079,70.266 150.452,70.266 96.719,0 147.972,-70.266 51.253,-71.093 51.253,-204.185 0,-133.092 -51.253,-203.358 -51.253,-71.093 -147.972,-71.093 z m 0,-211.625 q 238.905,0 372.824,128.959 134.745,128.959 134.745,357.117 0,228.158 -134.745,357.117 -133.919,128.959 -372.824,128.959 -239.732,0 -375.304,-128.959 -134.745,-128.959 -134.745,-357.117 0,-228.158 134.745,-357.117 135.572,-128.959 375.304,-128.959 z"
         style="font-style:normal;font-variant:normal;font-weight:bold;font-stretch:normal;font-size:1693px;line-height:normal;font-family:'Open Sans', sans-serif;-inkscape-font-specification:'Open Sans, sans-serif Bold';fill:#ffffff"
         id="path3744" />
      <path
         d="m 16661.792,12907.363 q -92.586,0 -139.706,31.413 -46.293,31.413 -46.293,92.586 0,56.213 37.2,88.453 38.027,31.413 104.986,31.413 83.493,0 140.532,-59.52 57.04,-60.346 57.04,-150.452 v -33.893 z m 452.183,-111.599 V 13324 h -298.424 v -137.226 q -59.52,84.32 -133.919,123.173 -74.4,38.026 -181.039,38.026 -143.839,0 -233.945,-83.493 -89.279,-84.319 -89.279,-218.238 0,-162.852 111.599,-238.905 112.426,-76.052 352.157,-76.052 h 174.426 v -23.147 q 0,-70.266 -55.386,-102.506 -55.387,-33.066 -172.772,-33.066 -95.066,0 -176.906,19.013 -81.839,19.013 -152.105,57.04 v -225.679 q 95.066,-23.146 190.958,-34.719 95.893,-12.4 191.785,-12.4 250.479,0 361.251,99.199 111.599,98.373 111.599,320.744 z m -543.942,-825.833 233.118,310.824 h -162.026 l -305.037,-310.824 z"
         style="font-style:normal;font-variant:normal;font-weight:bold;font-stretch:normal;font-size:1693px;line-height:normal;font-family:'Open Sans', sans-serif;-inkscape-font-specification:'Open Sans, sans-serif Bold';fill:#ffffff"
         id="path3746" />
      <path
         d="m 9028.4121,14205.796 h 318.2642 V 15440 h -318.2642 z"
         style="font-style:normal;font-variant:normal;font-weight:bold;font-stretch:normal;font-size:1693px;line-height:normal;font-family:'Open Sans', sans-serif;-inkscape-font-specification:'Open Sans, sans-serif Bold';fill:#ffffff"
         id="path3748" />
      <path
         d="M 10577.573,14876.218 V 15440 h -297.597 v -91.759 -339.758 q 0,-119.865 -5.787,-165.332 -4.96,-45.466 -18.187,-66.959 -17.359,-28.933 -47.119,-44.64 -29.76,-16.533 -67.786,-16.533 -92.586,0 -145.4925,71.919 -52.9063,71.093 -52.9063,197.572 V 15440 h -295.9443 v -925.859 h 295.9443 v 135.572 q 66.9598,-81.013 142.1858,-119.039 75.226,-38.853 166.158,-38.853 160.373,0 243.039,98.372 83.492,98.373 83.492,286.025 z"
         style="font-style:normal;font-variant:normal;font-weight:bold;font-stretch:normal;font-size:1693px;line-height:normal;font-family:'Open Sans', sans-serif;-inkscape-font-specification:'Open Sans, sans-serif Bold';fill:#ffffff"
         id="path3750" />
      <path
         d="m 11462.926,14153.717 v 194.265 h -163.678 q -62.827,0 -87.626,23.146 -24.8,22.32 -24.8,78.533 v 64.48 h 252.958 v 211.625 h -252.958 V 15440 h -295.945 v -714.234 h -147.145 v -211.625 h 147.145 v -64.48 q 0,-151.279 84.32,-223.198 84.319,-72.746 261.224,-72.746 z"
         style="font-style:normal;font-variant:normal;font-weight:bold;font-stretch:normal;font-size:1693px;line-height:normal;font-family:'Open Sans', sans-serif;-inkscape-font-specification:'Open Sans, sans-serif Bold';fill:#ffffff"
         id="path3752" />
      <path
         d="m 12031.668,14703.446 q -98.372,0 -150.452,71.093 -51.253,70.266 -51.253,203.358 0,133.092 51.253,204.185 52.08,70.266 150.452,70.266 96.72,0 147.973,-70.266 51.253,-71.093 51.253,-204.185 0,-133.092 -51.253,-203.358 -51.253,-71.093 -147.973,-71.093 z m 0,-211.625 q 238.905,0 372.824,128.959 134.746,128.959 134.746,357.117 0,228.158 -134.746,357.117 -133.919,128.959 -372.824,128.959 -239.731,0 -375.303,-128.959 -134.746,-128.959 -134.746,-357.117 0,-228.158 134.746,-357.117 135.572,-128.959 375.303,-128.959 z"
         style="font-style:normal;font-variant:normal;font-weight:bold;font-stretch:normal;font-size:1693px;line-height:normal;font-family:'Open Sans', sans-serif;-inkscape-font-specification:'Open Sans, sans-serif Bold';fill:#ffffff"
         id="path3754" />
      <path
         d="m 13442.777,14766.272 q -38.853,-18.187 -77.706,-26.453 -38.026,-9.093 -76.879,-9.093 -114.079,0 -176.079,73.572 -61.173,72.746 -61.173,209.145 V 15440 h -295.944 v -925.859 h 295.944 v 152.105 q 57.04,-90.933 130.613,-132.266 74.399,-42.159 177.732,-42.159 14.88,0 32.239,1.653 17.36,0.827 50.427,4.96 z"
         style="font-style:normal;font-variant:normal;font-weight:bold;font-stretch:normal;font-size:1693px;line-height:normal;font-family:'Open Sans', sans-serif;-inkscape-font-specification:'Open Sans, sans-serif Bold';fill:#ffffff"
         id="path3756" />
      <path
         d="m 14449.649,14667.899 q 56.213,-85.972 133.093,-130.612 77.706,-45.466 170.292,-45.466 159.545,0 243.038,98.372 83.492,98.373 83.492,286.025 V 15440 h -297.597 v -482.77 q 0.826,-10.746 0.826,-22.319 0.827,-11.574 0.827,-33.067 0,-98.372 -28.933,-142.185 -28.933,-44.64 -93.413,-44.64 -84.319,0 -130.612,69.439 -45.466,69.44 -47.12,200.879 V 15440 h -297.597 v -482.77 q 0,-153.758 -26.453,-197.571 -26.453,-44.64 -94.24,-44.64 -85.146,0 -131.439,70.266 -46.292,69.44 -46.292,199.225 V 15440 h -297.598 v -925.859 h 297.598 v 135.572 q 54.559,-78.533 124.825,-118.213 71.093,-39.679 156.239,-39.679 95.893,0 169.465,46.293 73.573,46.293 111.599,129.785 z"
         style="font-style:normal;font-variant:normal;font-weight:bold;font-stretch:normal;font-size:1693px;line-height:normal;font-family:'Open Sans', sans-serif;-inkscape-font-specification:'Open Sans, sans-serif Bold';fill:#ffffff"
         id="path3758" />
      <path
         d="m 15772.306,15023.363 q -92.586,0 -139.706,31.413 -46.293,31.413 -46.293,92.586 0,56.213 37.2,88.453 38.026,31.413 104.986,31.413 83.492,0 140.532,-59.52 57.039,-60.346 57.039,-150.452 v -33.893 z m 452.183,-111.599 V 15440 h -298.425 v -137.226 q -59.519,84.32 -133.918,123.173 -74.4,38.026 -181.039,38.026 -143.839,0 -233.945,-83.493 -89.279,-84.319 -89.279,-218.238 0,-162.852 111.599,-238.905 112.426,-76.052 352.157,-76.052 h 174.425 v -23.147 q 0,-70.266 -55.386,-102.506 -55.386,-33.066 -172.772,-33.066 -95.066,0 -176.905,19.013 -81.839,19.013 -152.105,57.04 v -225.679 q 95.065,-23.146 190.958,-34.719 95.893,-12.4 191.785,-12.4 250.478,0 361.251,99.199 111.599,98.373 111.599,320.744 z"
         style="font-style:normal;font-variant:normal;font-weight:bold;font-stretch:normal;font-size:1693px;line-height:normal;font-family:'Open Sans', sans-serif;-inkscape-font-specification:'Open Sans, sans-serif Bold';fill:#ffffff"
         id="path3760" />
      <path
         d="m 17249.547,14543.074 v 241.384 q -60.346,-41.333 -121.519,-61.172 -60.346,-19.84 -125.652,-19.84 -123.999,0 -193.439,72.746 -68.612,71.919 -68.612,201.705 0,129.786 68.612,202.532 69.44,71.919 193.439,71.919 69.439,0 131.439,-20.666 62.826,-20.667 115.732,-61.173 v 242.211 q -69.439,25.627 -141.359,38.027 -71.092,13.226 -143.012,13.226 -250.478,0 -391.837,-128.132 -141.359,-128.959 -141.359,-357.944 0,-228.985 141.359,-357.117 141.359,-128.959 391.837,-128.959 72.746,0 143.012,13.226 71.093,12.4 141.359,38.027 z M 17008.989,15440 q 47.947,51.253 70.266,95.066 23.147,43.813 23.147,82.666 0,78.533 -51.253,115.732 -50.426,38.027 -155.412,38.027 -39.68,0 -81.84,-5.787 -42.159,-4.96 -85.146,-15.706 l -0.826,-125.653 q 41.333,13.227 75.226,19.013 34.72,6.614 61.999,6.614 47.947,0 74.4,-19.014 27.28,-19.013 27.28,-52.079 0,-21.493 -18.187,-55.386 -17.36,-33.893 -54.56,-83.493 z"
         style="font-style:normal;font-variant:normal;font-weight:bold;font-stretch:normal;font-size:1693px;line-height:normal;font-family:'Open Sans', sans-serif;-inkscape-font-specification:'Open Sans, sans-serif Bold';fill:#ffffff"
         id="path3762" />
      <path
         d="m 17921.622,15023.363 q -92.586,0 -139.705,31.413 -46.293,31.413 -46.293,92.586 0,56.213 37.199,88.453 38.027,31.413 104.986,31.413 83.493,0 140.532,-59.52 57.04,-60.346 57.04,-150.452 v -33.893 z m 452.183,-111.599 V 15440 h -298.424 v -137.226 q -59.52,84.32 -133.919,123.173 -74.4,38.026 -181.039,38.026 -143.839,0 -233.944,-83.493 -89.28,-84.319 -89.28,-218.238 0,-162.852 111.599,-238.905 112.426,-76.052 352.158,-76.052 h 174.425 v -23.147 q 0,-70.266 -55.386,-102.506 -55.387,-33.066 -172.772,-33.066 -95.066,0 -176.906,19.013 -81.839,19.013 -152.105,57.04 v -225.679 q 95.066,-23.146 190.958,-34.719 95.893,-12.4 191.786,-12.4 250.478,0 361.25,99.199 111.599,98.373 111.599,320.744 z m -430.69,-599.328 -45.466,-30.587 q -3.307,-1.653 -8.267,-4.96 -38.853,-25.626 -59.519,-25.626 -29.76,0 -45.467,25.626 -15.706,25.627 -15.706,74.4 v 6.613 h -114.906 q 0,-112.426 42.16,-173.599 42.986,-61.173 119.866,-61.173 29.759,0 59.519,11.574 30.587,10.746 64.48,35.546 l 50.426,35.546 q 18.186,12.4 33.066,19.014 15.707,6.613 28.107,6.613 29.759,0 46.293,-26.453 16.533,-26.453 16.533,-73.573 v -6.613 h 114.906 q 0,112.425 -42.987,173.598 -42.159,61.173 -119.039,61.173 -29.76,0 -57.866,-9.92 -27.28,-9.92 -66.133,-37.199 z"
         style="font-style:normal;font-variant:normal;font-weight:bold;font-stretch:normal;font-size:1693px;line-height:normal;font-family:'Open Sans', sans-serif;-inkscape-font-specification:'Open Sans, sans-serif Bold';fill:#ffffff"
         id="path3764" />
      <path
         d="m 19091.346,14703.446 q -98.372,0 -150.452,71.093 -51.253,70.266 -51.253,203.358 0,133.092 51.253,204.185 52.08,70.266 150.452,70.266 96.719,0 147.972,-70.266 51.253,-71.093 51.253,-204.185 0,-133.092 -51.253,-203.358 -51.253,-71.093 -147.972,-71.093 z m 0,-211.625 q 238.905,0 372.824,128.959 134.746,128.959 134.746,357.117 0,228.158 -134.746,357.117 -133.919,128.959 -372.824,128.959 -239.731,0 -375.304,-128.959 -134.745,-128.959 -134.745,-357.117 0,-228.158 134.745,-357.117 135.573,-128.959 375.304,-128.959 z"
         style="font-style:normal;font-variant:normal;font-weight:bold;font-stretch:normal;font-size:1693px;line-height:normal;font-family:'Open Sans', sans-serif;-inkscape-font-specification:'Open Sans, sans-serif Bold';fill:#ffffff"
         id="path3766" />
    </g>
  </g>
</svg>
